<svg xmlns="http://www.w3.org/2000/svg" width="123" height="123" viewBox="0 0 123 123">
  <g id="Group_103" data-name="Group 103" transform="translate(-800 -815)">
    <g id="Ellipse_12" data-name="Ellipse 12" transform="translate(800 815)" fill="none" stroke="#707070" stroke-width="1">
      <circle cx="61.5" cy="61.5" r="61.5" stroke="none"/>
      <circle cx="61.5" cy="61.5" r="61" fill="none"/>
    </g>
    <path id="Icon_awesome-hands-helping" data-name="Icon awesome-hands-helping" d="M59.455,23.391H40.937v6.823a8.772,8.772,0,1,1-17.544,0V15.4L15.486,20.15A7.781,7.781,0,0,0,11.7,26.826v5.763L1.95,38.218A3.889,3.889,0,0,0,.525,43.542l9.747,16.886A3.9,3.9,0,0,0,15.6,61.853l12.6-7.273H44.835a7.8,7.8,0,0,0,7.8-7.8h1.949a3.894,3.894,0,0,0,3.9-3.9v-7.8h.975a2.917,2.917,0,0,0,2.924-2.924V26.315A2.917,2.917,0,0,0,59.455,23.391ZM77.45,18.834,67.7,1.948A3.9,3.9,0,0,0,62.379.523L49.782,7.8H37.33A7.856,7.856,0,0,0,33.2,8.978l-4.081,2.546a3.872,3.872,0,0,0-1.827,3.3V30.213a4.873,4.873,0,1,0,9.747,0V19.492H59.455a6.827,6.827,0,0,1,6.823,6.823v3.472l9.747-5.629a3.9,3.9,0,0,0,1.425-5.324Z" transform="translate(843.689 829.5) rotate(30)" fill="none" stroke="#626262" stroke-width="2"/>
  </g>
</svg>
