<svg xmlns="http://www.w3.org/2000/svg" width="22.814" height="22" viewBox="0 0 22.814 22">
  <g id="Group_12" data-name="Group 12" transform="translate(-94.001 -887)">
    <path id="Path_204" data-name="Path 204" d="M106.889,898.425a4.894,4.894,0,0,0,4.889-4.889v-2.462A4.079,4.079,0,0,0,107.7,887h-1.63A4.079,4.079,0,0,0,102,891.074v2.462a4.894,4.894,0,0,0,4.889,4.889m-3.259-7.351a2.447,2.447,0,0,1,2.444-2.444h1.63a2.447,2.447,0,0,1,2.444,2.444v2.462a3.259,3.259,0,1,1-6.519,0Z" transform="translate(-1.481)" fill="#d8caa9"/>
    <path id="Path_205" data-name="Path 205" d="M109.614,901.058a2.352,2.352,0,0,0-2.488,1.26,1.825,1.825,0,0,1-3.438,0,2.35,2.35,0,0,0-2.488-1.26,8.173,8.173,0,0,0-7.2,8.129v.6l.574.177a36.785,36.785,0,0,0,21.666,0l.574-.177v-.6a8.174,8.174,0,0,0-7.2-8.129m-13.96,7.53a6.528,6.528,0,0,1,5.812-5.922.725.725,0,0,1,.771.394,3.444,3.444,0,0,0,6.34,0,.732.732,0,0,1,.772-.394,6.528,6.528,0,0,1,5.811,5.922,35.277,35.277,0,0,1-19.506,0" transform="translate(0 -2.597)" fill="#d8caa9"/>
  </g>
</svg>
