<?xml version="1.0" encoding="utf-8"?>
<!-- Generator: Adobe Illustrator 16.0.3, SVG Export Plug-In . SVG Version: 6.00 Build 0)  -->
<!DOCTYPE svg PUBLIC "-//W3C//DTD SVG 1.1//EN" "http://www.w3.org/Graphics/SVG/1.1/DTD/svg11.dtd">
<svg version="1.1" id="Layer_1" xmlns="http://www.w3.org/2000/svg" xmlns:xlink="http://www.w3.org/1999/xlink" x="0px" y="0px"
	 width="427.941px" height="269.854px" viewBox="0 0 427.941 269.854" enable-background="new 0 0 427.941 269.854"
	 xml:space="preserve">
<g>
	<g>
		<path fill="#FFFFFF" d="M188.184,185.547c0,0,3.5-4.916,12.5-8.083s12.833-3.584,18.417-3.167c2.039,0.152,5.417-6,5.417-6
			s1-1.667,1.833-0.5s0.667,3.167,2.667,5s3.166,4.333,5.499,4.5s9.762,3.237,11.501,1c0.583-0.75,0.617-1.169,1-1.333
			c0.553-0.236,1.167,0.166,2,1.333s5.167,3.001,8.5,2.167s3.458-3.134,4.833-3.834c0.29-0.147,1,0.168,1,0.834
			s0.219,6.036-7.25,8.666c-5.917,2.083-14.084,1.417-14.917,0.917s-13.083-2.25-16-0.75c-2.106,1.083-2.547,0.347-3.333,0
			c-6.94-3.063-18.88-4.852-29.251,0.333c-7.166,3.583-6.082,0.667-6.082,0.667L188.184,185.547z"/>
		<path fill="#FFFFFF" d="M233.871,214.911l-6.719-20.25h-4.75l-6.531,20.344h-1.469v2.063h7.531v-2.219h-0.75v-2.969h6v3h-0.688
			v2.188h8.906v-2.156H233.871z M222.715,208.13l1.313-5.188h0.406l1.25,5.188H222.715z"/>
		<path fill="#FFFFFF" d="M255.184,256.964c0,0-1.659,3.099-9.669,4.935c-6.831,1.565-9.521,1.259-14.331,0.899
			c-1.756-0.131-4.333,6.416-4.333,6.416s-1.865,1.255-2.583,0.25s-1.027-3.254-2.75-4.833s-3.241-2.856-5.25-3
			c-2.01-0.144-6.75-2.583-10.917-2.75c-0.818-0.033-4.046,0.364-6.917,1.083c-2.871,0.718-2.906,0.729-4.25,0.75
			c-0.28,0.005-1.25-1.386-1.25-1.959c0-0.574,0.281-1.813,4.75-3.541c5.039-1.949,12.617-0.847,13.334-0.416
			s8.211,0.654,10.75-0.584c1.197-0.584,1.557-0.772,2.583-0.416c8.166,2.835,18.167,3.5,28.127,0.205
			c6.552-2.168,4.956,0.878,4.956,0.878L255.184,256.964z"/>
		<path fill="#FFFFFF" d="M239.913,194.599l17.938,0.031l0.031,7.531h-3.625c0,0-0.567-3.018-0.823-3.423
			c-0.354-0.563-1.479-0.313-1.479-0.313l0.021,15.735h1.375v2.894l-8.938,0.013v-2.875h1.5v-15.781c0,0-1.222-0.09-1.531,0.313
			c-0.457,0.594-0.75,3.438-0.75,3.438l-3.719-0.031V194.599z"/>
		<path fill="#FFFFFF" d="M191.913,194.599l17.938,0.031l0.031,7.531h-3.625c0,0-0.567-3.018-0.823-3.423
			c-0.354-0.563-1.479-0.313-1.479-0.313l0.021,15.735h1.375v2.894l-8.938,0.013v-2.875h1.5v-15.781c0,0-1.222-0.09-1.531,0.313
			c-0.457,0.594-0.75,3.438-0.75,3.438l-3.719-0.031V194.599z"/>
		<path fill="#FFFFFF" d="M191.913,226.058l17.938,0.031l0.031,7.531h-3.625c0,0-0.567-3.018-0.823-3.423
			c-0.354-0.563-1.479-0.313-1.479-0.313l0.021,15.735h1.375v2.894l-8.938,0.013v-2.875h1.5V229.87c0,0-1.222-0.09-1.531,0.313
			c-0.457,0.594-0.75,3.438-0.75,3.438l-3.719-0.031V226.058z"/>
		<g>
			<path fill="#FFFFFF" d="M233.348,232.05v9.871c0,2.204-0.643,3.875-1.93,5.008c-1.285,1.134-4.169,1.701-6.651,1.701
				c-2.481,0-5.369-0.567-6.662-1.701c-1.291-1.133-1.938-2.804-1.938-5.008v-9.871c0-2.192,0.646-3.858,1.938-4.991
				c1.293-1.134,4.181-1.701,6.662-1.701c2.482,0,5.366,0.567,6.651,1.701C232.705,228.191,233.348,229.857,233.348,232.05z
				 M227.688,231.825c0-1.155-0.232-1.998-0.697-2.527c-0.464-0.53-1.206-0.795-2.224-0.795c-1.017,0-1.762,0.265-2.234,0.795
				c-0.47,0.529-0.707,1.372-0.707,2.527v10.288c0,1.156,0.237,1.998,0.707,2.527c0.473,0.531,1.218,0.796,2.234,0.796
				c1.018,0,1.76-0.265,2.224-0.796c0.465-0.529,0.697-1.371,0.697-2.527V231.825z"/>
		</g>
		<g>
			<path fill="#FFFFFF" d="M257.723,232.05v9.871c0,2.204-0.643,3.875-1.93,5.008c-1.285,1.134-4.169,1.701-6.651,1.701
				c-2.481,0-5.369-0.567-6.662-1.701c-1.291-1.133-1.938-2.804-1.938-5.008v-9.871c0-2.192,0.646-3.858,1.938-4.991
				c1.293-1.134,4.181-1.701,6.662-1.701c2.482,0,5.366,0.567,6.651,1.701C257.08,228.191,257.723,229.857,257.723,232.05z
				 M252.063,231.825c0-1.155-0.232-1.998-0.697-2.527c-0.464-0.53-1.206-0.795-2.224-0.795c-1.017,0-1.762,0.265-2.234,0.795
				c-0.47,0.529-0.707,1.372-0.707,2.527v10.288c0,1.156,0.237,1.998,0.707,2.527c0.473,0.531,1.218,0.796,2.234,0.796
				c1.018,0,1.76-0.265,2.224-0.796c0.465-0.529,0.697-1.371,0.697-2.527V231.825z"/>
		</g>
	</g>
	<g>
		<path fill="#FFFFFF" d="M343.568,175.589c0.891-2.338,1.956-3.453,3.341-4.37c12.368-8.184,23.556-18,36.087-25.988
			c4.136-2.637,8.445-5.912,6.063-12.177c-0.426-1.119,0.487-1.566,1.404-1.73c3.604-0.645,7.143-1.314,8.862-5.212
			c2.012-4.558,2.975-9.235,1.948-14.194c-2.543-12.272-10.488-18.862-23.091-19.168c-14.051-0.34-22.803,8.253-23.033,22.802
			c0.311-0.355,0.588-0.571,0.733-0.854c4.229-8.191,9.393-9.809,17.806-5.562c7.922,3.999,9.682,13.396,3.737,20.022
			c-3.188,3.555-7.183,5.561-11.821,6.717c-8.258,2.059-16.05-4.299-16.306-12.545c-0.519-16.696,5.147-30.738,19.087-40.453
			c11.034-7.69,22.824-6.526,33.923-0.111c13.376,7.73,20.57,19.603,19.542,35.278c-0.873,13.312-9.22,22.22-19.736,29.313
			c-3.518,2.372-7.602,3.616-11.557,5.101c-12.424,4.668-23.713,11.506-35.027,18.314
			C351.991,172.899,348.438,175.267,343.568,175.589z"/>
		<path fill="#FFFFFF" d="M68.097,171.873c-12.24-0.542-22.538-7.801-30.178-19.43c-2.3-3.501-3.824-7.675-8.374-9.125
			c-1.194-0.381-0.894-1.338-0.525-2.171c1.802-4.091,1.251-8.277,0.69-12.516c-0.396-3.006-1.91-4.26-4.721-3.343
			c-2.572,0.84-4.953,0.026-7.377-0.343c-1.063-0.161-2.131-0.799-0.823-2.293c7.187-8.205,12.796-17.865,22.979-23.22
			c13.883-7.299,28.068-8.289,42.474-2.31c9.306,3.863,16.532,16.083,16.082,26.011c-0.283,6.245-2.61,11.573-8.507,14.368
			c-6.107,2.895-11.994,1.135-17.391-2.203c-3.977-2.459-6.492-5.964-6.88-10.934c-0.708-9.061,7.569-16.037,16.271-13.424
			c2.734,0.821,5.432,1.832,7.423,4.076c0.477,0.538,0.964,1.374,1.813,0.86c0.697-0.422,0.542-1.314,0.533-2.048
			c-0.069-6.35-4.33-12.153-11.212-14.397c-17.163-5.596-29.184,1.509-34.617,18.128c-1.934,5.915-0.276,12.207,5.428,16.362
			c0.919,0.67,2.087,1.266,1.979,2.521c-0.682,7.95,5.172,12.243,9.945,16.682c10.211,9.496,19.898,8.709,29.373-1.594
			c1.875-2.037,3.93-3.867,6.704-4.556c0.971-0.241,2.176-0.26,2.604,0.874c0.449,1.188-0.81,1.422-1.51,1.711
			c-5.391,2.218-7.865,7.031-10.63,11.645C84.898,169.137,79.288,172.171,68.097,171.873z"/>
		<path fill="#FFFFFF" d="M324.252,181.781c-2.075,2.529-4.027,3.732-6.028,4.923c-5.952,3.544-9.954,8.516-11.356,15.462
			c-0.446,2.211-0.781,4.343,1.306,5.73c2.221,1.476,4.176,0.062,5.66-1.428c6.703-6.728,11.507-14.67,14.239-23.763
			c1.25-4.158,3.063-8.189,3.396-12.587c0.071-0.938-0.001-2.238-0.57-2.789c-0.854-0.825-1.866,0.258-2.644,0.74
			c-4.32,2.684-8.299,5.921-13.518,6.959c-5.498,1.096-9.319-0.473-11.73-5.475c-1.575-3.268-2.51-6.737-2.617-10.416
			c-0.156-5.366-0.498-10.728-0.594-16.094c-0.055-3.102-1-5.668-3.643-7.353c-1.825-1.162-1.762-2.236-0.154-3.378
			c4.76-3.38,9.979-5.678,15.889-5.719c4.818-0.033,7.271,2.712,6.803,7.7c-0.407,4.328-1.32,8.608-2.021,12.907
			c-0.545,3.343-0.712,6.71-0.48,10.082c0.312,4.541,2.766,7.472,6.502,7.933c3.87,0.479,9.139-2.228,9.858-5.862
			c2.288-11.553,5.617-23.174,0.306-34.826c-0.239-0.525-0.776-1.1-0.324-1.708c0.605-0.813,1.371-0.214,2.041-0.053
			c10.705,2.582,14.572,10.193,11.903,23.384c-0.755,3.73-3.364,7.308-0.944,11.346c0.238,0.397,0.051,1.414-0.309,1.75
			c-5.881,5.517-6.651,13.461-9.579,20.34c-5.839,13.723-13.289,26.184-24.822,35.969c-6.383,5.416-13.64,7.026-21.64,5.734
			c-6.385-1.031-8.985-5.294-7.805-11.602c1.604-8.561,7.7-13.439,14.392-17.726C304.218,186.551,313.669,183.799,324.252,181.781z"
			/>
		<path fill="#FFFFFF" d="M151.94,182.968c0.711-0.386,1.422-0.772,2.133-1.159c0.718,1.684,4.934-0.984,3.773,3.035
			c-3.019,2.334-6.027,4.684-9.48,6.373c-1.377-0.28-2.904,0.986-3.701,0.707c-5.852-2.042-1.068,2.048-1.756,2.893
			c-5.171,3.29-11.036,5.08-16.544,7.644c-17.526,8.157-35.75,9.149-54.425,5.091c-5.28-1.148-10.541-1.865-15.941-0.735
			c-1.719,0.359-4.165,1.023-2.641-2.53c0.682-1.589-0.338-3.118-1.316-4.476c-3.676-5.101-4.502-10.953-4.43-17.033
			c0.029-2.348,0.712-3.468,3.436-2.526c14.855,5.133,28.726,1.664,42.102-5.209c4.281-2.199,8.38-4.752,12.917-7.346
			c0,3.313-0.109,6.139,0.024,8.953c0.24,5.086,3.05,7.766,8.112,7.768c1.261,0,2.673-0.438,3.134,1.147
			c1.091,3.759,4.1,4.006,7.152,3.98c8.64-0.074,16.817-2.421,24.876-5.283C150.499,184.378,151.698,184.627,151.94,182.968z"/>
		<path fill="#FFFFFF" d="M192.784,42.34c-0.795,12.411,7.203,17.6,16.35,21.969c4.847,2.314,9.618,4.848,12.96,9.248
			c1.438,1.894,2.362,0.916,3.51-0.166c4.089-3.855,8.222-7.642,13.432-10.019c1.954-0.892,3.951-1.581,6.066-1.802
			c7.529-0.789,11.173,2.334,11.146,9.894c-0.059,16.394-5.476,30.696-16.841,42.704c-3.333,3.521-6.786,6.556-11.659,7.638
			c-4.413,0.979-6.945-0.065-8.824-4.137c-1.313-2.845-2.136-5.87-1.7-9.063c1.064-7.809-3.254-13.533-7.42-19.321
			c-0.214-0.298-0.523-0.729-0.81-0.746c-5.069-0.293-5.461-4.838-7.41-8.01c-2.176-3.538-5.495-6.102-8.201-9.196
			c-5.558-6.355-8.565-13.294-6.413-21.954C187.763,46.187,189.315,44.016,192.784,42.34z M225.482,100.221
			c-0.508,2.341,0.542,4.63,1.584,6.892c1.143,2.477,2.982,2.974,5.061,1.216c7.601-6.431,11.581-14.575,10.502-24.605
			c-0.494-4.589-3.467-7.932-7.737-9.818c-2.651-1.171-5.096-0.387-7.265,1.406c-1.406,1.163-1.891,2.498-1.077,4.271
			c2.036,4.439,1.491,8.957,0.19,13.448C226.082,95.3,225.226,97.518,225.482,100.221z"/>
		<path fill="#FFFFFF" d="M207.218,145.097c-1.856-3.921-0.205-6.019,2.591-8.11c6.363-4.762,13.037-8.689,21.034-9.931
			c3.894-0.604,7.628-0.224,10.334,2.841c2.851,3.229,1.96,6.985,0.521,10.575c-4.304,10.735-17.167,17.874-28.94,16.103
			c-11.063-1.665-19.087-10.629-20.319-22.697c-0.385-3.763-0.839-3.968-4.38-2.131c-3.749,1.943-7.354,4.273-11.715,4.67
			c-5.338,0.486-8.603-2.073-10.178-7.708c-1.729-6.188-0.007-12.116,1.165-18.093c1.032-5.265,0.987-10.401-1.661-15.258
			c-0.72-1.32-1.391-2.907-2.793-3.419c-3.896-1.427-1.563-2.803,0.049-3.778c4.544-2.752,9.023-5.705,14.878-4.448
			c3.864,0.83,5.594,3.23,6.484,6.8c1.547,6.202-0.567,12.126-1.172,18.162c-0.399,3.985-0.733,7.951,0.13,11.918
			c0.439,2.021,1.067,4.227,3.359,4.408c2.577,0.204,6.108-0.335,6.916-2.614c3.015-8.503,6.754-16.967,5.631-26.385
			c-0.053-0.442-0.335-0.857-0.531-1.338c4.466,0.848,6.169,2.937,7.318,7.979c1.494,6.558,0.289,12.901-1.14,19.238
			c-1.631,7.236-2.569,14.47-1.166,21.872c1.253,6.612,4.568,10.073,11.185,10.469c6.311,0.377,12.084-1.574,16.891-5.795
			c1.798-1.578,3.478-3.631,2.608-6.202c-0.834-2.469-3.212-3.243-5.65-3.632c-5.662-0.902-10.897,0.352-15.824,3.117
			C211.014,142.733,209.246,143.869,207.218,145.097z"/>
		<path fill="#FFFFFF" d="M158.717,144.901c-1.004,2.474-2.829,3.577-4.649,4.643c-6.74,3.947-10.939,1.85-11.891-5.856
			c-1.117-9.049,0.565-17.892,1.881-26.764c0.437-2.944,1.16-5.878-0.375-8.758c-1.4-2.629-3.619-3.76-6.201-2.401
			c-6.099,3.21-12.231,6.762-14.176,13.994c-1.585,5.896-1.203,12.562,1.883,17.331c2.372,3.666,2.355,6.463,2.313,10.178
			c-0.042,3.563,1.582,6.785,5.603,7.947c0.878,0.254,2.199,0.38,2.104,1.699c-0.073,1.009-0.924,1.705-1.764,2.305
			c-2.434,1.739-7.346,1.479-10.637-0.585c-3.178-1.993-5.279-4.864-6.829-8.218c-2.516-5.44-4.434-11.053-5.298-17.017
			c-0.62-4.276-2.179-8.154-5.299-11.301c-0.746-0.753-1.464-1.459-1.25-2.877c2.211-14.69-4.772-28.07-17.993-34.714
			c-0.523-0.263-1.027-0.563-1.687-0.927c13.151-2.7,24.625,3.547,31.618,16.916c1.876,3.586,2.722,7.451,3.672,11.311
			c0.253,1.028,0.229,2.537,1.319,2.778c1.121,0.247,1.811-1.15,2.512-1.951c4.23-4.83,9.033-8.928,14.753-11.896
			c3.346-1.736,6.874-3.134,10.659-3.043c5.309,0.127,10.022,5.252,10.51,10.853c0.52,5.969-1.193,11.612-2.425,17.325
			c-0.864,4.005-1.938,7.966-2.755,11.981C153.454,142.086,154.853,144.293,158.717,144.901z"/>
		<path fill="#FFFFFF" d="M253.958,139.418c-0.082-3.146,0.035-6.253-0.708-9.301c-0.609-2.505-1.537-4.776-3.865-6.135
			c-2.685-1.568-1.563-2.424,0.462-3.388c3.15-1.5,6.618-0.146,9.992-1.136c-1.418-3.899-5.933-6.835-3.26-12.22
			c2.356,3.546,4.281,6.823,7.461,9.188c2.601,1.936,5.234,2.542,8.347,2.343c11.911-0.767,22.572-4.801,32.086-11.961
			c0.49-0.369,1.025-0.678,1.55-0.997c0.057-0.034,0.185,0.05,0.534,0.159c-3.072,11.023-10.057,19.055-19.516,24.902
			c-2.668,1.649-2.669,2.746-1.25,4.795c2.908,4.202,4.455,9.123,6.783,13.617c1.504,2.904,0.332,7.311,0.006,11.014
			c-0.295,3.34-1.155,6.627-1.606,9.959c-0.38,2.811-0.193,5.538,2.547,7.309c0.796,0.514,1.556,1.199,0.778,2.086
			c-3.522,4.017-6.801,8.482-12.692,9.149c-4.416,0.501-5.694-0.606-6.892-4.905c-1.157-4.151-0.154-8.2,0.326-12.266
			c0.643-5.453,3.102-10.933-0.986-16.164c-0.809-1.035,0.524-2.332,1.041-3.404c2.197-4.566,2.048-9.135,0.275-13.758
			c-0.651-1.702-1.576-2.498-3.664-2.056c-2.917,0.616-5.959,0.615-8.904,1.127C259.881,137.883,257.013,138.699,253.958,139.418z"
			/>
		<path fill="#FFFFFF" d="M261.422,48.405c3.548-6.672,10.246-10.565,15.949-9.288c8.362,1.873,13.617,8.614,14.443,18.962
			c3.325-1.869,6.517-4.048,10.463-2.719c1.054,0.355,2.229,0.482,3.17,1.024c3.231,1.859,3.332,4.748,0.206,6.695
			c-7.316,4.557-12.046,10.696-12.43,19.628c-0.133,3.074,0.367,6.025,2.142,8.55c1.725,2.455,3.521,4.657,7.14,2.241
			c2.285-1.524,5.152-1.949,7.814-0.367c0.71,0.422,1.678,0.938,1.274,2.004c-0.383,1.01-1.279,0.302-1.938,0.291
			c-3.715-0.059-6.659,1.232-9.128,4.176c-7.537,8.987-15.353,11.287-24.748,7.579c-7.896-3.116-14.256-13.923-13.954-23.401
			c0.193-6.065,2.533-11.343,5.466-16.462c1.364-2.38,2.804-4.722,4.049-7.163c2.5-4.898-0.174-9.92-5.632-10.772
			C264.261,49.158,262.702,49.38,261.422,48.405z M286.96,68.006c-2.712,2.081-4.66,3.85-6.859,5.215
			c-7.229,4.49-8.663,11.204-7.284,18.879c1.847,10.279,11.592,14.819,20.605,9.766c3.361-1.885,3.548-3.304,0.771-5.668
			c-4.143-3.53-6.571-7.916-7.426-13.377C286.021,78.057,286.376,73.38,286.96,68.006z"/>
		<path fill="#FFFFFF" d="M205.845,34.328c0.349-2.443,0.74-4.003,2.494-4.722c5.4-2.211,8.041-6.826,10.217-11.805
			c2.091-4.783,3.554-9.772,4.721-14.861c0.278-1.21,0.39-3.165,2.217-2.919c1.688,0.226,2.02,1.943,2.167,3.494
			c0.976,10.271,4.357,19.277,13.296,25.395c2.162,1.479,2.941,2.909,0.532,5.229c-3.673,3.537-6.922,7.511-10.389,11.264
			c-1.613,1.746-3.162,3.472-3.59,5.956c-0.163,0.953-0.604,2.229-1.662,2.255c-1.102,0.027-1.33-1.366-1.717-2.222
			c-1.352-2.989-3.387-5.456-5.433-7.985c-2.746-3.394-5.741-6.098-10.225-6.88C207.064,36.279,205.38,35.723,205.845,34.328z"/>
		<path fill="#FFFFFF" d="M0,157.234c6.998,0.553,12.511-2.597,18.379-4.339c2.183-0.647,3.311-0.297,3.659,1.94
			c1.242,7.965,6.516,12.832,12.93,16.791c0.998,0.615,2.217,1.151,1.823,2.426c-0.481,1.56-1.932,0.697-2.918,0.565
			c-4.938-0.662-9.849-1.438-14.874-0.967c-2.693,0.252-5.122,0.972-7.135,2.807c-1.14,1.039-2.239,1.25-3.729,0.604
			c-1.86-0.808-1.286-2.149-1.094-3.456c0.758-5.135-2.107-9.01-4.54-13.021C1.889,159.572,1.087,158.676,0,157.234z"/>
		<path fill="#FFFFFF" d="M427.938,158.248c-0.369,0.461-0.898,0.999-1.285,1.625c-2.788,4.498-6.264,8.705-4.813,14.692
			c0.499,2.057-2.286,3.919-3.905,2.572c-6.539-5.442-13.921-3.363-21.163-2.853c-1.622,0.113-3.96,1.666-4.706-0.1
			c-1.055-2.492,2.113-2.436,3.418-3.501c4.966-4.052,9.82-8.181,10.849-15.042c0.454-3.033,1.989-3.311,4.687-2.537
			c5.19,1.491,9.974,4.672,15.724,3.978C427.364,157.008,428,157.17,427.938,158.248z"/>
		<path fill="#FFFFFF" d="M157.847,184.844c1.16-4.02-3.056-1.352-3.773-3.035c10.958-6.837,21.852-13.771,31.668-22.228
			c2.824-2.433,5.441-5.105,8.24-7.569c0.693-0.609,1.517-2.182,2.688-0.727c0.872,1.082,0.142,2.028-0.827,2.828
			c-7.769,6.416-15.328,13.105-23.337,19.206C167.557,177.089,162.986,181.328,157.847,184.844z"/>
		<path fill="#FFFFFF" d="M142.909,194.816c0.688-0.845-4.096-4.935,1.756-2.893c0.797,0.279,2.324-0.987,3.701-0.707
			C146.759,192.738,145.008,194.04,142.909,194.816z"/>
		<path fill="#FFFFFF" d="M151.94,182.968c-0.242,1.659-1.441,1.41-2.575,1.293C150.063,183.51,150.956,183.148,151.94,182.968z"/>
	</g>
</g>
</svg>
