<svg xmlns="http://www.w3.org/2000/svg" width="123" height="123" viewBox="0 0 123 123">
  <g id="Group_163" data-name="Group 163" transform="translate(-1589 -491)">
    <g id="Ellipse_6" data-name="Ellipse 6" transform="translate(1589 491)" fill="none" stroke="#707070" stroke-width="1">
      <circle cx="61.5" cy="61.5" r="61.5" stroke="none"/>
      <circle cx="61.5" cy="61.5" r="61" fill="none"/>
    </g>
    <g id="Group_141" data-name="Group 141" transform="translate(1584.662 498.449)">
      <g id="Group_130" data-name="Group 130" transform="translate(36.338 28.392)">
        <path id="Path_239" data-name="Path 239" d="M91.3,33.226H89.509V29.261a.881.881,0,0,0-.9-.869c-14.99,0-20.937,3.422-22.784,4.834-1.819-1.412-7.767-4.834-22.757-4.834a.888.888,0,0,0-.923.869v3.965H40.357a4.045,4.045,0,0,0-4.019,4.019V75.4a4.045,4.045,0,0,0,4.019,4.019H79.434a.91.91,0,0,0,.9-.923.881.881,0,0,0-.9-.869H68.762a27.14,27.14,0,0,1,7.169-2.308.839.839,0,0,0,.706-1.032.856.856,0,0,0-1.032-.706,26.766,26.766,0,0,0-8.88,3.123V68.094a14.451,14.451,0,0,0,6.843-2.281l1.874,1.847-.38.407a.733.733,0,0,0-.271.6.842.842,0,0,0,.271.652l8.527,8.527a3.79,3.79,0,0,0,2.661,1.113,3.682,3.682,0,0,0,2.634-1.113l.842-.787a3.854,3.854,0,0,0,0-5.35l-8.554-8.527a.869.869,0,0,0-1.249,0l-.38.407-1.874-1.9a14.045,14.045,0,0,0-10.944-21.7V34.774c1.059-.9,6.083-4.454,20.991-4.617V66.166a.9.9,0,0,0,1.792,0V35.045H91.3a2.214,2.214,0,0,1,2.227,2.2V75.4a2.157,2.157,0,0,1-.489,1.385.9.9,0,0,0,.163,1.249.862.862,0,0,0,1.222-.136,4.02,4.02,0,0,0,.9-2.5V37.245A4.027,4.027,0,0,0,91.3,33.226Zm-47.36-3.041c14.8.136,19.932,3.72,20.992,4.616v5.187a14.09,14.09,0,0,0,0,28.106V76.7c-2.526-1.575-8.473-4.1-20.992-4.209ZM40.357,77.626A2.237,2.237,0,0,1,38.13,75.4V37.245a2.214,2.214,0,0,1,2.227-2.2h1.792V73.362a.91.91,0,0,0,.923.9c11.134,0,17,1.928,19.824,3.367ZM88.45,72.982a2,2,0,0,1,0,2.8l-.815.788a1.951,1.951,0,0,1-2.8,0l-7.9-7.9L78.728,66.9l1.439-1.439h0l.38-.38ZM75.8,61.278a.907.907,0,0,0,.081,1.168l2.39,2.39-.788.788-.787.787-2.39-2.39a.786.786,0,0,0-.625-.272.979.979,0,0,0-.543.163,12.173,12.173,0,0,1-15.941-1.195,12.289,12.289,0,1,1,18.6-1.439Z" transform="translate(-36.338 -28.392)" fill="#4b4b4b"/>
      </g>
      <g id="Group_131" data-name="Group 131" transform="translate(46.982 35.665)">
        <path id="Path_240" data-name="Path 240" d="M37.573,30.457a50.619,50.619,0,0,1,10.482,1.494l.217.027a.873.873,0,0,0,.869-.652.864.864,0,0,0-.625-1.086,53.935,53.935,0,0,0-10.862-1.575.829.829,0,0,0-.923.815A.9.9,0,0,0,37.573,30.457Z" transform="translate(-36.73 -28.66)" fill="#4b4b4b"/>
      </g>
      <g id="Group_132" data-name="Group 132" transform="translate(46.982 41.914)">
        <path id="Path_241" data-name="Path 241" d="M37.573,30.657c1.494.109,2.987.217,4.345.407h.109a.9.9,0,0,0,.109-1.792c-1.412-.136-2.933-.3-4.481-.38a.849.849,0,0,0-.923.842A.864.864,0,0,0,37.573,30.657Z" transform="translate(-36.73 -28.89)" fill="#4b4b4b"/>
      </g>
      <g id="Group_133" data-name="Group 133" transform="translate(46.982 48.16)">
        <path id="Path_242" data-name="Path 242" d="M37.573,30.914c.516.054,1.059.081,1.548.109h.054a.9.9,0,0,0,.109-1.792c-.516-.027-1.059-.081-1.629-.109a.878.878,0,0,0-.923.815A.9.9,0,0,0,37.573,30.914Z" transform="translate(-36.73 -29.12)" fill="#4b4b4b"/>
      </g>
      <g id="Group_134" data-name="Group 134" transform="translate(46.982 54.433)">
        <path id="Path_243" data-name="Path 243" d="M37.573,31.118l1.086.081h.054a.9.9,0,0,0,.054-1.792c-.353,0-.733-.027-1.113-.054a.849.849,0,0,0-.923.842A.864.864,0,0,0,37.573,31.118Z" transform="translate(-36.73 -29.351)" fill="#4b4b4b"/>
      </g>
      <g id="Group_135" data-name="Group 135" transform="translate(46.982 60.652)">
        <path id="Path_244" data-name="Path 244" d="M40.669,29.826l-3.014-.244a.883.883,0,0,0-.923.842.858.858,0,0,0,.842.95c1,.081,1.982.136,2.933.217h.082a.865.865,0,0,0,.9-.787A.91.91,0,0,0,40.669,29.826Z" transform="translate(-36.73 -29.58)" fill="#4b4b4b"/>
      </g>
      <g id="Group_136" data-name="Group 136" transform="translate(57.146 45.29)">
        <path id="Path_245" data-name="Path 245" d="M39.65,31.56A8.744,8.744,0,0,0,45.842,46.5a8.646,8.646,0,0,0,6.192-2.553A8.756,8.756,0,0,0,39.65,31.56Zm11.134,1.249a6.982,6.982,0,1,1-4.942-2.037A7.015,7.015,0,0,1,50.784,32.809Z" transform="translate(-37.104 -29.014)" fill="#4b4b4b"/>
      </g>
      <g id="Group_137" data-name="Group 137" transform="translate(72.241 35.665)">
        <path id="Path_246" data-name="Path 246" d="M49.171,28.665A53.941,53.941,0,0,0,38.336,30.24a.88.88,0,0,0,.217,1.738l.244-.027A50.347,50.347,0,0,1,49.28,30.457a.914.914,0,0,0,.842-.978A.852.852,0,0,0,49.171,28.665Z" transform="translate(-37.66 -28.66)" fill="#4b4b4b"/>
      </g>
      <g id="Group_138" data-name="Group 138" transform="translate(78.505 41.914)">
        <path id="Path_247" data-name="Path 247" d="M43.138,28.891c-1.548.081-3.041.244-4.481.38a.892.892,0,0,0-.76,1,.9.9,0,0,0,.869.788h.109c1.385-.19,2.851-.3,4.372-.407a.881.881,0,0,0,.842-.923A.872.872,0,0,0,43.138,28.891Z" transform="translate(-37.891 -28.89)" fill="#4b4b4b"/>
      </g>
      <g id="Group_139" data-name="Group 139" transform="translate(81.33 48.16)">
        <path id="Path_248" data-name="Path 248" d="M40.417,29.121c-.543.027-1.086.081-1.6.109a.9.9,0,0,0-.815.95.869.869,0,0,0,.869.842h.054c.543-.027,1.059-.054,1.6-.109a.914.914,0,0,0,.842-.978A.9.9,0,0,0,40.417,29.121Z" transform="translate(-37.995 -29.12)" fill="#4b4b4b"/>
      </g>
      <g id="Group_140" data-name="Group 140" transform="translate(81.819 54.433)">
        <path id="Path_249" data-name="Path 249" d="M39.946,29.352c-.38.027-.733.054-1.113.054a.9.9,0,0,0,.054,1.792h.082l1.086-.081a.884.884,0,1,0-.109-1.765Z" transform="translate(-38.013 -29.351)" fill="#4b4b4b"/>
      </g>
    </g>
  </g>
</svg>
