<svg xmlns="http://www.w3.org/2000/svg" width="123" height="123" viewBox="0 0 123 123">
  <g id="Group_159" data-name="Group 159" transform="translate(-1597 -296)">
    <circle id="Ellipse_10" data-name="Ellipse 10" cx="61.5" cy="61.5" r="61.5" transform="translate(1597 296)" fill="#4b4b4b"/>
    <g id="Group_108" data-name="Group 108" transform="translate(-1 2)">
      <g id="Group_104" data-name="Group 104" transform="translate(1638.167 325.74)">
        <path id="Path_217" data-name="Path 217" d="M148.419,78.653a12.091,12.091,0,0,0-21.755-7.307,12.109,12.109,0,0,0-21.782,7.307c0,13.566,20.432,26.194,21.286,26.746a1.126,1.126,0,0,0,.5.138,1.034,1.034,0,0,0,.5-.138C128.016,104.847,148.419,92.219,148.419,78.653Zm-21.755,24.871c-3.088-1.958-19.963-13.4-19.963-24.871a10.31,10.31,0,0,1,19.191-5.239.9.9,0,0,0,1.544,0,10.451,10.451,0,0,1,8.906-5.074,10.326,10.326,0,0,1,10.285,10.312C146.627,90.123,129.725,101.566,126.664,103.524Z" transform="translate(-104.882 -66.521)" fill="#fff"/>
      </g>
      <g id="Group_105" data-name="Group 105" transform="translate(1630 349.48)">
        <path id="Path_218" data-name="Path 218" d="M124.774,85.994c-1.324-.551-2.482-1.02-6.287-6.176a3.613,3.613,0,0,0-2.15-1.434,40.744,40.744,0,0,1-1.93-5.515A11.783,11.783,0,0,0,113,69.23a2.91,2.91,0,0,0-2.234-1.241,3.084,3.084,0,0,0-1.654.469,1.942,1.942,0,0,0-1.3-.993,2.387,2.387,0,0,0-2.123.414,4.217,4.217,0,0,0-1.1,3.061c-.248,14.641,8.961,25.312,14.476,30.385a7.8,7.8,0,0,0,9.926.441l.827-.634a7,7,0,0,0,2.73-4.908,7.116,7.116,0,0,0-1.682-5.349C127.531,87.124,126.042,86.49,124.774,85.994Zm-14.09-16.158a1.09,1.09,0,0,1,.855.469,12.338,12.338,0,0,1,1.13,3.088,43.9,43.9,0,0,0,1.792,5.211,4.937,4.937,0,0,0-1.379.855l-.276.276a49.538,49.538,0,0,1-2.619-8.079l-.441-1.489A1.618,1.618,0,0,1,110.684,69.836Zm20.073,26.194a5.167,5.167,0,0,1-2.041,3.64l-.827.634a5.917,5.917,0,0,1-7.582-.331c-5.294-4.853-14.145-15.055-13.9-29.062a2.415,2.415,0,0,1,.441-1.627.421.421,0,0,1,.331-.11l.276.055a10.5,10.5,0,0,1,.965,2.9,52.345,52.345,0,0,0,3.943,11h0c.689,2.261,2.868,5.239,6.673,9.071a.881.881,0,0,0,.634.276.8.8,0,0,0,.634-.276.882.882,0,0,0,0-1.268c-4.467-4.549-5.873-7.059-6.231-8.41h0v-.027c-.359-1.186.055-1.544.221-1.654a2.19,2.19,0,0,1,1.6-.689,1.687,1.687,0,0,1,1.1.717c4.108,5.57,5.487,6.149,7.086,6.783,1.158.5,2.371.965,5.377,4.439A5.134,5.134,0,0,1,130.757,96.031Z" transform="translate(-104.586 -67.382)" fill="#fff"/>
      </g>
      <g id="Group_106" data-name="Group 106" transform="translate(1661.891 349.48)">
        <path id="Path_219" data-name="Path 219" d="M132.669,67.879a2.473,2.473,0,0,0-2.151-.414,1.828,1.828,0,0,0-1.3.993,3,3,0,0,0-1.627-.469,3.058,3.058,0,0,0-2.288,1.241,14.316,14.316,0,0,0-1.406,3.64,37.259,37.259,0,0,1-1.93,5.515,3.644,3.644,0,0,0-2.123,1.406c-3.805,5.184-4.963,5.653-6.287,6.2-1.324.5-2.73,1.13-6.066,4.88a6.921,6.921,0,0,0-1.709,5.349,7,7,0,0,0,2.73,4.908l.827.634a7.876,7.876,0,0,0,4.715,1.572,7.709,7.709,0,0,0,5.184-2.013c5.542-5.073,14.779-15.744,14.476-30.33A4.142,4.142,0,0,0,132.669,67.879Zm-7,5.515a10.472,10.472,0,0,1,1.13-3.088,1.084,1.084,0,0,1,.827-.469h.028a1.353,1.353,0,0,1,.882.331c-.11.469-.248.965-.359,1.489a56.44,56.44,0,0,1-2.647,8.079l-.276-.276a4.939,4.939,0,0,0-1.378-.855A49.56,49.56,0,0,0,125.665,73.393Zm6.232-2.426c.276,13.952-8.575,24.154-13.842,29.007a5.922,5.922,0,0,1-7.583.331l-.855-.634a5.136,5.136,0,0,1-2.013-3.64,4.993,4.993,0,0,1,1.241-3.943c3.033-3.474,4.246-3.943,5.4-4.439,1.572-.634,2.95-1.213,7.114-6.838a1.643,1.643,0,0,1,1.075-.662h.165a2.447,2.447,0,0,1,1.461.689c.111.11.552.469.221,1.654v.027h0c-.414,1.351-1.792,3.86-6.259,8.41a.839.839,0,0,0,0,1.268.8.8,0,0,0,.634.276.839.839,0,0,0,.634-.276c3.8-3.833,5.983-6.81,6.7-9.071h0a51.884,51.884,0,0,0,3.915-11,10.5,10.5,0,0,1,.965-2.9c.414-.11.552,0,.607.055C131.842,69.561,131.924,70.415,131.9,70.967Z" transform="translate(-105.742 -67.382)" fill="#fff"/>
      </g>
      <g id="Group_107" data-name="Group 107" transform="translate(1651.098 336.383)">
        <path id="Path_220" data-name="Path 220" d="M120.764,72.449h-3.226V69.2a2.283,2.283,0,0,0-2.288-2.288h-2.068a2.283,2.283,0,0,0-2.288,2.288v3.254H107.64a2.283,2.283,0,0,0-2.289,2.288v2.1a2.26,2.26,0,0,0,2.289,2.261h3.254v3.254a2.283,2.283,0,0,0,2.288,2.289h2.068a2.283,2.283,0,0,0,2.288-2.289V79.094h3.226a2.283,2.283,0,0,0,2.316-2.261v-2.1A2.306,2.306,0,0,0,120.764,72.449Zm.5,4.384a.486.486,0,0,1-.5.441h-4.136a.9.9,0,0,0-.883.91v4.163a.488.488,0,0,1-.5.469h-2.068a.472.472,0,0,1-.5-.469V78.184a.9.9,0,0,0-.91-.91H107.64a.486.486,0,0,1-.5-.441v-2.1a.489.489,0,0,1,.5-.469h4.136a.918.918,0,0,0,.91-.91V69.2a.489.489,0,0,1,.5-.469h2.068a.509.509,0,0,1,.5.469v4.164a.913.913,0,0,0,.883.91h4.136a.489.489,0,0,1,.5.469Z" transform="translate(-105.351 -66.907)" fill="#fff"/>
      </g>
    </g>
  </g>
</svg>
