<svg xmlns="http://www.w3.org/2000/svg" width="123" height="123" viewBox="0 0 123 123">
  <g id="Group_165" data-name="Group 165" transform="translate(-1314 -688)">
    <g id="Ellipse_17" data-name="Ellipse 17" transform="translate(1314 688)" fill="none" stroke="#707070" stroke-width="1">
      <circle cx="61.5" cy="61.5" r="61.5" stroke="none"/>
      <circle cx="61.5" cy="61.5" r="61" fill="none"/>
    </g>
    <g id="Ellipse_18" data-name="Ellipse 18" transform="translate(1314 688)" fill="none" stroke="#707070" stroke-width="1">
      <circle cx="61.5" cy="61.5" r="61.5" stroke="none"/>
      <circle cx="61.5" cy="61.5" r="61" fill="none"/>
    </g>
    <g id="Group_156" data-name="Group 156" transform="translate(1323.602 705.459)">
      <g id="Group_145" data-name="Group 145" transform="translate(34.896 35.916)">
        <path id="Path_252" data-name="Path 252" d="M29.829,19.208H27.38A2.574,2.574,0,0,0,24.8,21.813v2.423a2.59,2.59,0,0,0,2.579,2.6h2.449a2.613,2.613,0,0,0,2.6-2.6V21.813A2.6,2.6,0,0,0,29.829,19.208Zm.86,5.028a.89.89,0,0,1-.86.886H27.38a.89.89,0,0,1-.86-.886V21.813a.851.851,0,0,1,.86-.86h2.449a.851.851,0,0,1,.86.86Z" transform="translate(-24.801 -19.208)" fill="#4b4b4b"/>
      </g>
      <g id="Group_146" data-name="Group 146" transform="translate(34.896 47.717)">
        <path id="Path_253" data-name="Path 253" d="M29.829,19.661H27.38a2.574,2.574,0,0,0-2.579,2.6v2.449a2.585,2.585,0,0,0,2.579,2.579h2.449a2.607,2.607,0,0,0,2.6-2.579V22.266A2.6,2.6,0,0,0,29.829,19.661Zm.86,5.054a.867.867,0,0,1-.86.86H27.38a.867.867,0,0,1-.86-.86V22.266a.851.851,0,0,1,.86-.86h2.449a.851.851,0,0,1,.86.86Z" transform="translate(-24.801 -19.661)" fill="#4b4b4b"/>
      </g>
      <g id="Group_147" data-name="Group 147" transform="translate(34.896 59.517)">
        <path id="Path_254" data-name="Path 254" d="M29.829,20.114H27.38a2.59,2.59,0,0,0-2.579,2.6v2.449a2.568,2.568,0,0,0,2.579,2.579h2.449a2.59,2.59,0,0,0,2.6-2.579V22.719A2.613,2.613,0,0,0,29.829,20.114Zm.86,5.054a.867.867,0,0,1-.86.86H27.38a.867.867,0,0,1-.86-.86V22.719a.851.851,0,0,1,.86-.86h2.449a.851.851,0,0,1,.86.86Z" transform="translate(-24.801 -20.114)" fill="#4b4b4b"/>
      </g>
      <g id="Group_148" data-name="Group 148" transform="translate(45.264 35.916)">
        <path id="Path_255" data-name="Path 255" d="M26.059,20.953H43.512a.9.9,0,0,0,.886-.886.873.873,0,0,0-.886-.86H26.059a.867.867,0,0,0-.86.86A.89.89,0,0,0,26.059,20.953Z" transform="translate(-25.199 -19.208)" fill="#4b4b4b"/>
      </g>
      <g id="Group_149" data-name="Group 149" transform="translate(45.264 47.717)">
        <path id="Path_256" data-name="Path 256" d="M26.059,21.406H43.512a.873.873,0,1,0,0-1.745H26.059a.873.873,0,0,0,0,1.745Z" transform="translate(-25.199 -19.661)" fill="#4b4b4b"/>
      </g>
      <g id="Group_150" data-name="Group 150" transform="translate(45.264 53.63)">
        <path id="Path_257" data-name="Path 257" d="M26.059,21.607H37.521a.86.86,0,1,0,0-1.719H26.059a.86.86,0,1,0,0,1.719Z" transform="translate(-25.199 -19.888)" fill="#4b4b4b"/>
      </g>
      <g id="Group_151" data-name="Group 151" transform="translate(45.264 41.829)">
        <path id="Path_258" data-name="Path 258" d="M26.059,21.154H39.631a.867.867,0,0,0,.86-.86.851.851,0,0,0-.86-.86H26.059a.851.851,0,0,0-.86.86A.867.867,0,0,0,26.059,21.154Z" transform="translate(-25.199 -19.435)" fill="#4b4b4b"/>
      </g>
      <g id="Group_152" data-name="Group 152" transform="translate(45.264 59.517)">
        <path id="Path_259" data-name="Path 259" d="M26.059,21.859H37.521a.873.873,0,1,0,0-1.745H26.059a.873.873,0,0,0,0,1.745Z" transform="translate(-25.199 -20.114)" fill="#4b4b4b"/>
      </g>
      <g id="Group_153" data-name="Group 153" transform="translate(45.264 65.431)">
        <path id="Path_260" data-name="Path 260" d="M39.631,20.341H26.059a.867.867,0,0,0-.86.86.851.851,0,0,0,.86.86H39.631a.851.851,0,0,0,.86-.86A.867.867,0,0,0,39.631,20.341Z" transform="translate(-25.199 -20.341)" fill="#4b4b4b"/>
      </g>
      <g id="Group_154" data-name="Group 154" transform="translate(24.398 18.541)">
        <path id="Path_261" data-name="Path 261" d="M77.7,58.5a8.671,8.671,0,0,0-7.763-8.622V24.871a6.343,6.343,0,0,0-6.356-6.33H30.728a6.336,6.336,0,0,0-.886,12.608V74.261a.9.9,0,0,0,.26.6.91.91,0,0,0,.625.26H69.047a.89.89,0,0,0,.886-.86V67.124A8.652,8.652,0,0,0,77.7,58.5ZM26.117,24.871a4.614,4.614,0,0,1,4.611-4.585H59.253a6.273,6.273,0,0,0,0,9.2H30.728A4.6,4.6,0,0,1,26.117,24.871Zm5.47,48.5V31.2H63.577a.857.857,0,0,0,.886-.86.873.873,0,0,0-.886-.86,4.6,4.6,0,1,1,4.611-4.611V49.879a8.667,8.667,0,0,0,0,17.245v6.252Zm37.46-7.945A6.916,6.916,0,1,1,75.977,58.5,6.921,6.921,0,0,1,69.047,65.431Z" transform="translate(-24.398 -18.541)" fill="#4b4b4b"/>
      </g>
      <g id="Group_155" data-name="Group 155" transform="translate(64.723 54.177)">
        <path id="Path_262" data-name="Path 262" d="M33.735,23.374H31.156v-2.6a.873.873,0,0,0-1.745,0v2.6H26.832a.873.873,0,0,0-.886.86.857.857,0,0,0,.886.86h2.579v2.6a.873.873,0,0,0,1.745,0v-2.6h2.579a.835.835,0,0,0,.86-.86A.851.851,0,0,0,33.735,23.374Z" transform="translate(-25.946 -19.909)" fill="#4b4b4b"/>
      </g>
    </g>
  </g>
</svg>
