<svg xmlns="http://www.w3.org/2000/svg" width="123" height="123" viewBox="0 0 123 123">
  <g id="Group_161" data-name="Group 161" transform="translate(-1314 -491)">
    <circle id="Ellipse_9" data-name="Ellipse 9" cx="61.5" cy="61.5" r="61.5" transform="translate(1314 491)" fill="#4b4b4b"/>
    <g id="Group_129" data-name="Group 129" transform="translate(1318.06 503.578)">
      <g id="Group_124" data-name="Group 124" transform="translate(30.94 23.263)">
        <path id="Path_235" data-name="Path 235" d="M74.725,30.776a25.667,25.667,0,1,0,7.513,18.145A25.5,25.5,0,0,0,74.725,30.776ZM73.638,65.955a24.156,24.156,0,1,1,7.04-17.034A24.127,24.127,0,0,1,73.638,65.955Z" transform="translate(-30.94 -23.263)" fill="#fff"/>
      </g>
      <g id="Group_125" data-name="Group 125" transform="translate(42.593 50.344)">
        <path id="Path_236" data-name="Path 236" d="M42.679,30.121l-4.394,4.418a3.172,3.172,0,0,1-2.2.9,3.106,3.106,0,0,1-3.119-3.119,3.094,3.094,0,0,1,.921-2.2l4.394-4.394a.756.756,0,0,0,0-1.087.784.784,0,0,0-1.11,0L32.78,29.034a4.588,4.588,0,0,0-1.347,3.284,4.643,4.643,0,0,0,1.347,3.308,4.735,4.735,0,0,0,6.615,0l4.394-4.418a.8.8,0,0,0,0-1.087A.831.831,0,0,0,42.679,30.121Z" transform="translate(-31.433 -24.409)" fill="#fff"/>
      </g>
      <g id="Group_126" data-name="Group 126" transform="translate(58.021 34.899)">
        <path id="Path_237" data-name="Path 237" d="M36.693,25.138,32.3,29.532a.785.785,0,0,0,1.11,1.11L37.8,26.224A3.116,3.116,0,0,1,42.2,30.642L37.8,35.037a.756.756,0,0,0,0,1.087.743.743,0,0,0,1.087,0l4.418-4.394a4.669,4.669,0,0,0-6.615-6.592Z" transform="translate(-32.086 -23.755)" fill="#fff"/>
      </g>
      <g id="Group_127" data-name="Group 127" transform="translate(42.593 34.899)">
        <path id="Path_238" data-name="Path 238" d="M39.395,25.138a4.649,4.649,0,0,0-6.615,0,4.589,4.589,0,0,0-1.347,3.284,4.643,4.643,0,0,0,1.347,3.308L51.468,50.417a4.735,4.735,0,0,0,6.615,0,4.663,4.663,0,0,0,0-6.592ZM56.973,49.331a3.123,3.123,0,0,1-4.394,0L33.89,30.642a3.19,3.19,0,0,1-.921-2.221,3.094,3.094,0,0,1,.921-2.2,3.13,3.13,0,0,1,2.2-.9,3.172,3.172,0,0,1,2.2.9L56.973,44.913a3.071,3.071,0,0,1,.9,2.2A3.126,3.126,0,0,1,56.973,49.331Z" transform="translate(-31.433 -23.755)" fill="#fff"/>
      </g>
    </g>
  </g>
</svg>
