<svg xmlns="http://www.w3.org/2000/svg" width="123" height="123" viewBox="0 0 123 123">
  <g id="Group_158" data-name="Group 158" transform="translate(-1313 -296)">
    <circle id="Ellipse_8" data-name="Ellipse 8" cx="61.5" cy="61.5" r="61.5" transform="translate(1313 296)" fill="#4b4b4b"/>
    <path id="Icon_awesome-money-bill-wave" data-name="Icon awesome-money-bill-wave" d="M53.5,4.185A25.506,25.506,0,0,0,43.475,2.25c-10.609,0-21.217,5.369-31.826,5.369a26.133,26.133,0,0,1-7.98-1.182,2.945,2.945,0,0,0-.891-.14A2.741,2.741,0,0,0,0,9.038V36.364A2.739,2.739,0,0,0,1.623,38.9a25.492,25.492,0,0,0,10.027,1.935c10.609,0,21.218-5.37,31.827-5.37a26.133,26.133,0,0,1,7.98,1.182,2.945,2.945,0,0,0,.891.14,2.741,2.741,0,0,0,2.778-2.74V6.723A2.743,2.743,0,0,0,53.5,4.185Zm-49.368,6.7a29.974,29.974,0,0,0,5.4.769,5.519,5.519,0,0,1-5.4,4.439Zm0,24.548V31.314A5.511,5.511,0,0,1,9.622,36.6,20.808,20.808,0,0,1,4.134,35.43Zm23.428-5.618c-3.806,0-6.891-3.7-6.891-8.269s3.085-8.269,6.891-8.269,6.891,3.7,6.891,8.269S31.367,29.812,27.562,29.812ZM50.99,32.205a29.615,29.615,0,0,0-4.679-.727,5.5,5.5,0,0,1,4.679-4.245Zm0-20.337a5.5,5.5,0,0,1-4.807-5.3,20.7,20.7,0,0,1,4.807,1.09Z" transform="translate(1346.249 336.488)" fill="none" stroke="#fff" stroke-width="2"/>
  </g>
</svg>
