<svg xmlns="http://www.w3.org/2000/svg" width="123" height="123" viewBox="0 0 123 123">
  <g id="Group_157" data-name="Group 157" transform="translate(-1037 -296)">
    <circle id="Ellipse_7" data-name="Ellipse 7" cx="61.5" cy="61.5" r="61.5" transform="translate(1037 296)" fill="#4b4b4b"/>
    <path id="Icon_simple-materialdesign" data-name="Icon simple-materialdesign" d="M30,0A30,30,0,1,0,60,30,30.014,30.014,0,0,0,30,0Zm0,1.875A27.989,27.989,0,0,1,48.672,9H11.325A27.993,27.993,0,0,1,30,1.875Zm-17.965,9h35.93L30,46.807ZM9,11.325v37.35A28.03,28.03,0,0,1,9,11.33Zm42,0a28.033,28.033,0,0,1,0,37.347ZM10.875,12.75,29.063,49.125H10.875Zm38.25,0V49.125H30.938L49.127,12.75ZM11.332,51h37.34A28.027,28.027,0,0,1,11.33,51Z" transform="translate(1069 328)" fill="#fff"/>
  </g>
</svg>
