<svg xmlns="http://www.w3.org/2000/svg" width="123" height="123" viewBox="0 0 123 123">
  <g id="Group_161" data-name="Group 161" transform="translate(-1037 -491)">
    <g id="Ellipse_4" data-name="Ellipse 4" transform="translate(1037 491)" fill="none" stroke="#707070" stroke-width="1">
      <circle cx="61.5" cy="61.5" r="61.5" stroke="none"/>
      <circle cx="61.5" cy="61.5" r="61" fill="none"/>
    </g>
    <g id="Group_123" data-name="Group 123" transform="translate(1023.818 498.561)">
      <g id="Group_109" data-name="Group 109" transform="translate(47.182 28.28)">
        <path id="Path_221" data-name="Path 221" d="M96.96,30.795H93.542V29.086a.806.806,0,0,0-1.611,0v1.709h-6.1V29.086a.8.8,0,0,0-.806-.806.813.813,0,0,0-.806.806v1.709h-6.1V29.086a.794.794,0,1,0-1.587,0v1.709h-6.1V29.086a.806.806,0,1,0-1.611,0v1.709h-6.1V29.086a.806.806,0,0,0-1.611,0v1.709h-6.1V29.086a.806.806,0,1,0-1.611,0v1.709h-3a3.2,3.2,0,0,0-3.2,3.223V76.373a3.214,3.214,0,0,0,3.2,3.222H96.96a3.235,3.235,0,0,0,3.223-3.222V34.017A3.219,3.219,0,0,0,96.96,30.795Zm0,47.19H50.38a1.626,1.626,0,0,1-1.611-1.611V40h.415a.792.792,0,0,0,.806-.781.818.818,0,0,0-.806-.83h-.415v-4.37a1.626,1.626,0,0,1,1.611-1.611h3v1.733a.806.806,0,0,0,1.611,0V32.406h6.1v1.733a.806.806,0,0,0,1.611,0V32.406h6.1v1.733a.806.806,0,0,0,1.611,0V32.406h6.1v1.733a.794.794,0,0,0,1.587,0V32.406h6.1v1.733a.808.808,0,0,0,.806.781.792.792,0,0,0,.806-.781V32.406h6.1v1.733a.806.806,0,0,0,1.611,0V32.406H96.96a1.61,1.61,0,0,1,1.611,1.611v4.37H98.18a.8.8,0,0,0-.806.83A.777.777,0,0,0,98.18,40h.391V76.373A1.61,1.61,0,0,1,96.96,77.984Z" transform="translate(-47.182 -28.28)" fill="#4b4b4b"/>
      </g>
      <g id="Group_110" data-name="Group 110" transform="translate(52.406 38.387)">
        <path id="Path_222" data-name="Path 222" d="M51.4,29.524a.818.818,0,0,0-.806-.83H48.177a.8.8,0,0,0-.781.83.771.771,0,0,0,.781.781h2.417A.792.792,0,0,0,51.4,29.524Z" transform="translate(-47.396 -28.694)" fill="#4b4b4b"/>
      </g>
      <g id="Group_111" data-name="Group 111" transform="translate(71.668 38.387)">
        <path id="Path_223" data-name="Path 223" d="M48.991,30.305h2.392a.8.8,0,0,0,.83-.781.823.823,0,0,0-.83-.83H48.991a.818.818,0,0,0-.806.83A.792.792,0,0,0,48.991,30.305Z" transform="translate(-48.185 -28.694)" fill="#4b4b4b"/>
      </g>
      <g id="Group_112" data-name="Group 112" transform="translate(65.247 38.387)">
        <path id="Path_224" data-name="Path 224" d="M51.926,29.524a.8.8,0,0,0-.806-.83H48.728a.8.8,0,0,0-.806.83.777.777,0,0,0,.806.781H51.12A.777.777,0,0,0,51.926,29.524Z" transform="translate(-47.922 -28.694)" fill="#4b4b4b"/>
      </g>
      <g id="Group_113" data-name="Group 113" transform="translate(58.827 38.387)">
        <path id="Path_225" data-name="Path 225" d="M48.44,30.305h2.417a.777.777,0,0,0,.806-.781.8.8,0,0,0-.806-.83H48.44a.8.8,0,0,0-.781.83A.771.771,0,0,0,48.44,30.305Z" transform="translate(-47.659 -28.694)" fill="#4b4b4b"/>
      </g>
      <g id="Group_114" data-name="Group 114" transform="translate(84.509 38.387)">
        <path id="Path_226" data-name="Path 226" d="M49.517,30.305h2.417a.792.792,0,0,0,.806-.781.818.818,0,0,0-.806-.83H49.517a.818.818,0,0,0-.806.83A.792.792,0,0,0,49.517,30.305Z" transform="translate(-48.711 -28.694)" fill="#4b4b4b"/>
      </g>
      <g id="Group_115" data-name="Group 115" transform="translate(78.089 38.387)">
        <path id="Path_227" data-name="Path 227" d="M51.671,28.694H49.254a.818.818,0,0,0-.806.83.792.792,0,0,0,.806.781h2.417a.792.792,0,0,0,.806-.781A.818.818,0,0,0,51.671,28.694Z" transform="translate(-48.448 -28.694)" fill="#4b4b4b"/>
      </g>
      <g id="Group_116" data-name="Group 116" transform="translate(90.954 38.387)">
        <path id="Path_228" data-name="Path 228" d="M52.173,28.694H49.756a.8.8,0,0,0-.781.83.771.771,0,0,0,.781.781h2.417a.792.792,0,0,0,.806-.781A.818.818,0,0,0,52.173,28.694Z" transform="translate(-48.975 -28.694)" fill="#4b4b4b"/>
      </g>
      <g id="Group_117" data-name="Group 117" transform="translate(69.861 47.224)">
        <path id="Path_229" data-name="Path 229" d="M49.722,36.648h4.394a1.589,1.589,0,0,0,1.611-1.587V30.643a1.589,1.589,0,0,0-1.611-1.587H49.722a1.6,1.6,0,0,0-1.611,1.587v4.419A1.6,1.6,0,0,0,49.722,36.648Zm0-6.006h4.394v4.419H49.722Z" transform="translate(-48.111 -29.056)" fill="#4b4b4b"/>
      </g>
      <g id="Group_118" data-name="Group 118" transform="translate(55.311 47.224)">
        <path id="Path_230" data-name="Path 230" d="M53.521,29.056H49.126a1.589,1.589,0,0,0-1.611,1.587v4.419a1.589,1.589,0,0,0,1.611,1.587h4.394a1.584,1.584,0,0,0,1.587-1.587V30.643A1.584,1.584,0,0,0,53.521,29.056Zm-4.394,6.006V30.643h4.394v4.419Z" transform="translate(-47.515 -29.056)" fill="#4b4b4b"/>
      </g>
      <g id="Group_119" data-name="Group 119" transform="translate(84.436 47.224)">
        <path id="Path_231" data-name="Path 231" d="M54.714,29.056H50.319a1.6,1.6,0,0,0-1.611,1.587v4.419a1.6,1.6,0,0,0,1.611,1.587h4.394a1.6,1.6,0,0,0,1.611-1.587V30.643A1.6,1.6,0,0,0,54.714,29.056Zm-4.394,6.006V30.643h4.394v4.419Z" transform="translate(-48.708 -29.056)" fill="#4b4b4b"/>
      </g>
      <g id="Group_120" data-name="Group 120" transform="translate(55.311 62.653)">
        <path id="Path_232" data-name="Path 232" d="M53.521,29.688H49.126a1.589,1.589,0,0,0-1.611,1.587v4.419a1.589,1.589,0,0,0,1.611,1.587h4.394a1.584,1.584,0,0,0,1.587-1.587V31.275A1.584,1.584,0,0,0,53.521,29.688Zm-4.394,6.005V31.275h4.394v4.419Z" transform="translate(-47.515 -29.688)" fill="#4b4b4b"/>
      </g>
      <g id="Group_121" data-name="Group 121" transform="translate(84.436 62.653)">
        <path id="Path_233" data-name="Path 233" d="M54.714,29.688H50.319a1.6,1.6,0,0,0-1.611,1.587v4.419a1.6,1.6,0,0,0,1.611,1.587h4.394a1.6,1.6,0,0,0,1.611-1.587V31.275A1.6,1.6,0,0,0,54.714,29.688Zm-4.394,6.005V31.275h4.394v4.419Z" transform="translate(-48.708 -29.688)" fill="#4b4b4b"/>
      </g>
      <g id="Group_122" data-name="Group 122" transform="translate(66.444 57.918)">
        <path id="Path_234" data-name="Path 234" d="M60.153,32.545l.976-1.88a.8.8,0,0,0-.342-1.074.781.781,0,0,0-1.074.342l-.879,1.66a7.074,7.074,0,0,0-3.222-.806h-.806a6.856,6.856,0,0,0-6.836,6.836V38.4a6.861,6.861,0,0,0,6.836,6.86h.806a6.861,6.861,0,0,0,6.836-6.86v-.781A6.807,6.807,0,0,0,60.153,32.545Zm.684,5.859a5.23,5.23,0,0,1-5.224,5.224h-.806A5.215,5.215,0,0,1,49.582,38.4v-.781A5.23,5.23,0,0,1,54.807,32.4h.806a5.01,5.01,0,0,1,2.466.635L55.124,38.7l-1.9-2.905a.79.79,0,0,0-1.1-.244.823.823,0,0,0-.244,1.1l2.661,4.077a.769.769,0,0,0,.659.391h.049a.816.816,0,0,0,.659-.464L59.4,34.034a5.226,5.226,0,0,1,1.44,3.589Z" transform="translate(-47.971 -29.494)" fill="#4b4b4b"/>
      </g>
    </g>
  </g>
</svg>
