<svg xmlns="http://www.w3.org/2000/svg" width="123" height="123" viewBox="0 0 123 123">
  <g id="Group_163" data-name="Group 163" transform="translate(-1038 -688)">
    <circle id="Ellipse_11" data-name="Ellipse 11" cx="61.5" cy="61.5" r="61.5" transform="translate(1038 688)" fill="#4b4b4b"/>
    <circle id="Ellipse_15" data-name="Ellipse 15" cx="61.5" cy="61.5" r="61.5" transform="translate(1038 688)" fill="#4b4b4b"/>
    <g id="Group_144" data-name="Group 144" transform="translate(1013.771 668.973)">
      <g id="Group_142" data-name="Group 142" transform="translate(59.229 57.027)">
        <path id="Path_250" data-name="Path 250" d="M113.229,74.049a4.951,4.951,0,1,0-5.791,4.863v21.209a4.074,4.074,0,0,1-8.148,0V97.59a5.591,5.591,0,1,0-11.181,0v7.471a4.751,4.751,0,1,1-9.5,0v-9.5h.953A3.156,3.156,0,0,0,82.694,92.4v-.1a14.033,14.033,0,0,0,9.1-13.111v-.777H95.53a.835.835,0,0,0,.827-.827.819.819,0,0,0-.827-.827H91.794v-9.2a10.618,10.618,0,0,0-1.254-5.014,3.353,3.353,0,0,0,.877-2.231,3.3,3.3,0,1,0-3.309,3.309,3.371,3.371,0,0,0,1-.176,8.87,8.87,0,0,1,1.053,4.111v9.2H87.507L83.7,67.531a.8.8,0,0,0-.777-.476.772.772,0,0,0-.752.5L76.727,81.67,72.867,71.417a.775.775,0,0,0-.727-.552.752.752,0,0,0-.777.5l-2.357,5.39h-3.56v-9.2A8.576,8.576,0,0,1,66.5,63.445a3.107,3.107,0,0,0,1,.176,3.3,3.3,0,1,0-3.309-3.309,3.331,3.331,0,0,0,.852,2.231,10.645,10.645,0,0,0-1.278,5.014v9.2h-3.71a.819.819,0,0,0-.827.827.835.835,0,0,0,.827.827h3.71v.777a14.079,14.079,0,0,0,9.1,13.111v.1a3.183,3.183,0,0,0,3.184,3.159h.9v9.5a6.405,6.405,0,0,0,12.811,0V97.59a3.949,3.949,0,1,1,7.9,0v2.532a5.717,5.717,0,0,0,11.432.125l.025-.025V78.913A4.936,4.936,0,0,0,113.229,74.049ZM86.454,60.311a1.655,1.655,0,0,1,3.309,0,1.655,1.655,0,1,1-3.309,0ZM67.5,58.681a1.626,1.626,0,0,1,1.63,1.63,1.654,1.654,0,0,1-1.63,1.68,1.7,1.7,0,0,1-1.68-1.68A1.67,1.67,0,0,1,67.5,58.681ZM65.446,79.188v-.777h4.086a.807.807,0,0,0,.752-.526L72.039,73.9l3.886,10.354a.838.838,0,0,0,.777.552h0a.761.761,0,0,0,.752-.526L82.97,70.088l3.259,7.8a.793.793,0,0,0,.752.526h3.184v.777A12.379,12.379,0,0,1,82.243,90.72a3.19,3.19,0,0,0-2.682-1.479h-3.51a3.151,3.151,0,0,0-2.683,1.479A12.282,12.282,0,0,1,65.446,79.188Zm9.1,13.212a1.5,1.5,0,0,1,1.5-1.529h3.51a1.517,1.517,0,0,1,0,3.033h-3.51A1.493,1.493,0,0,1,74.546,92.4Zm33.719-15.042a3.309,3.309,0,1,1,3.284-3.309A3.317,3.317,0,0,1,108.265,77.358Z" transform="translate(-59.229 -57.027)" fill="#fff"/>
      </g>
      <g id="Group_143" data-name="Group 143" transform="translate(107.463 73.247)">
        <path id="Path_251" data-name="Path 251" d="M61.955,57.674a.825.825,0,0,0-.8.8.8.8,0,0,0,1.6,0A.825.825,0,0,0,61.955,57.674Z" transform="translate(-61.153 -57.674)" fill="#fff"/>
      </g>
    </g>
  </g>
</svg>
